<svg preserveAspectRatio="none" width="100%" height="100%" overflow="visible" style="display: block;" viewBox="0 0 20 20" fill="none" xmlns="http://www.w3.org/2000/svg">
<g id="folders">
<path id="Vector" d="M14.1667 14.1667V15.8333C14.1667 16.2754 13.9911 16.6993 13.6785 17.0118C13.366 17.3244 12.942 17.5 12.5 17.5H4.16667C3.72464 17.5 3.30072 17.3244 2.98816 17.0118C2.67559 16.6993 2.5 16.2754 2.5 15.8333V8.33333C2.5 7.89131 2.67559 7.46738 2.98816 7.15482C3.30072 6.84226 3.72464 6.66667 4.16667 6.66667H5.83333M7.5 3.33333H10L11.6667 5H15.8333C16.2754 5 16.6993 5.17559 17.0118 5.48816C17.3244 5.80072 17.5 6.22464 17.5 6.66667V12.5C17.5 12.942 17.3244 13.366 17.0118 13.6785C16.6993 13.9911 16.2754 14.1667 15.8333 14.1667H7.5C7.05797 14.1667 6.63405 13.9911 6.32149 13.6785C6.00893 13.366 5.83333 12.942 5.83333 12.5V5C5.83333 4.55797 6.00893 4.13405 6.32149 3.82149C6.63405 3.50893 7.05797 3.33333 7.5 3.33333Z" stroke="var(--stroke-0, #D4D4D4)" stroke-linecap="round" stroke-linejoin="round"/>
</g>
</svg>
