<svg preserveAspectRatio="none" width="100%" height="100%" overflow="visible" style="display: block;" viewBox="0 0 154.521 30" fill="none" xmlns="http://www.w3.org/2000/svg">
<g id="tagPlan" filter="url(#filter0_di_0_57)">
<path d="M4 13C4 6.92487 8.92487 2 15 2H139.521C145.596 2 150.521 6.92487 150.521 13V13C150.521 19.0751 145.596 24 139.521 24H15C8.92487 24 4 19.0751 4 13V13Z" fill="url(#paint0_linear_0_57)" shape-rendering="crispEdges"/>
<g id="&#226;&#156;&#166;" filter="url(#filter1_d_0_57)">
<path d="M17.6875 19C17.5729 18.3229 17.2708 17.5937 16.7812 16.8125C16.2917 16.0208 15.5937 15.2865 14.6875 14.6094C13.7917 13.9323 12.8958 13.5 12 13.3125V12.6562C12.8854 12.4479 13.7344 12.0625 14.5469 11.5C15.3698 10.9271 16.0573 10.2396 16.6094 9.4375C17.1719 8.61458 17.5312 7.80208 17.6875 7H18.3437C18.4375 7.52083 18.625 8.05729 18.9062 8.60937C19.1875 9.15104 19.5469 9.67187 19.9844 10.1719C20.4323 10.6615 20.9323 11.1042 21.4844 11.5C22.3073 12.0833 23.1458 12.4687 24 12.6562V13.3125C23.4271 13.4271 22.8333 13.6615 22.2187 14.0156C21.6146 14.3698 21.0521 14.7917 20.5312 15.2812C20.0104 15.7604 19.5833 16.2656 19.25 16.7969C18.7604 17.5781 18.4583 18.3125 18.3437 19H17.6875Z" fill="var(--fill-0, black)"/>
</g>
<g id="Experi&#195;&#170;ncia Premium" filter="url(#filter2_d_0_57)">
<path d="M32 15.9425V8.0225H37.115V9.2655H33.3255V11.218H36.455V12.461H33.3255V14.6995H37.115V15.9425H32Z" fill="var(--fill-0, #371A05)"/>
<path d="M37.7746 15.9425L39.9471 12.9395L37.8186 10.0025H39.3806L40.7171 11.9L42.0316 10.0025H43.5936L41.4651 12.9395L43.6486 15.9425H42.0866L40.7171 13.979L39.3366 15.9425H37.7746Z" fill="var(--fill-0, #371A05)"/>
<path d="M47.3799 16.1075C46.8006 16.1075 46.3147 15.97 45.9224 15.695C45.5301 15.42 45.2349 15.046 45.0369 14.573C44.8389 14.0963 44.7399 13.5628 44.7399 12.9725C44.7399 12.3748 44.8389 11.8395 45.0369 11.3665C45.2349 10.8935 45.5246 10.5213 45.9059 10.25C46.2909 9.975 46.7657 9.8375 47.3304 9.8375C47.8914 9.8375 48.3772 9.975 48.7879 10.25C49.2022 10.5213 49.5231 10.8935 49.7504 11.3665C49.9777 11.8358 50.0914 12.3712 50.0914 12.9725C50.0914 13.5665 49.9796 14.1 49.7559 14.573C49.5322 15.046 49.2169 15.42 48.8099 15.695C48.4029 15.97 47.9262 16.1075 47.3799 16.1075ZM44.5144 18.5825V10.0025H45.6859V14.1715H45.8509V18.5825H44.5144ZM47.1764 14.9195C47.5211 14.9195 47.8052 14.8333 48.0289 14.661C48.2526 14.4887 48.4176 14.2558 48.5239 13.9625C48.6339 13.6655 48.6889 13.3355 48.6889 12.9725C48.6889 12.6132 48.6339 12.2868 48.5239 11.9935C48.4139 11.6965 48.2434 11.4618 48.0124 11.2895C47.7814 11.1135 47.4881 11.0255 47.1324 11.0255C46.7951 11.0255 46.5201 11.108 46.3074 11.273C46.0947 11.4343 45.9371 11.6617 45.8344 11.955C45.7354 12.2447 45.6859 12.5838 45.6859 12.9725C45.6859 13.3575 45.7354 13.6967 45.8344 13.99C45.9371 14.2833 46.0966 14.5125 46.3129 14.6775C46.5329 14.8388 46.8207 14.9195 47.1764 14.9195Z" fill="var(--fill-0, #371A05)"/>
<path d="M54.0042 16.1075C53.4029 16.1075 52.8749 15.9773 52.4202 15.717C51.9655 15.4567 51.6099 15.0955 51.3532 14.6335C51.1002 14.1715 50.9737 13.6398 50.9737 13.0385C50.9737 12.3895 51.0984 11.8267 51.3477 11.35C51.597 10.8697 51.9435 10.4975 52.3872 10.2335C52.8309 9.9695 53.3442 9.8375 53.9272 9.8375C54.5432 9.8375 55.0657 9.98233 55.4947 10.272C55.9274 10.558 56.2482 10.9632 56.4572 11.4875C56.6662 12.0118 56.745 12.6297 56.6937 13.341H55.3792V12.857C55.3755 12.2117 55.2619 11.7405 55.0382 11.4435C54.8145 11.1465 54.4625 10.998 53.9822 10.998C53.4395 10.998 53.0362 11.1667 52.7722 11.504C52.5082 11.8377 52.3762 12.3272 52.3762 12.9725C52.3762 13.5738 52.5082 14.0395 52.7722 14.3695C53.0362 14.6995 53.4212 14.8645 53.9272 14.8645C54.2535 14.8645 54.534 14.793 54.7687 14.65C55.007 14.5033 55.1904 14.2925 55.3187 14.0175L56.6277 14.4135C56.4004 14.9488 56.0484 15.365 55.5717 15.662C55.0987 15.959 54.5762 16.1075 54.0042 16.1075ZM51.9582 13.341V12.34H56.0447V13.341H51.9582Z" fill="var(--fill-0, #371A05)"/>
<path d="M57.9209 15.9425V10.0025H59.0924V11.449L58.9494 11.262C59.0227 11.064 59.1199 10.8843 59.2409 10.723C59.3656 10.558 59.5141 10.4223 59.6864 10.316C59.8331 10.217 59.9944 10.14 60.1704 10.085C60.3501 10.0263 60.5334 9.9915 60.7204 9.9805C60.9074 9.96583 61.0889 9.97317 61.2649 10.0025V11.24C61.0889 11.1887 60.8854 11.1722 60.6544 11.1905C60.4271 11.2088 60.2217 11.273 60.0384 11.383C59.8551 11.482 59.7047 11.6085 59.5874 11.7625C59.4737 11.9165 59.3894 12.0925 59.3344 12.2905C59.2794 12.4848 59.2519 12.6957 59.2519 12.923V15.9425H57.9209Z" fill="var(--fill-0, #371A05)"/>
<path d="M62.4245 9.1005V7.885H63.75V9.1005H62.4245ZM62.4245 15.9425V10.0025H63.75V15.9425H62.4245Z" fill="var(--fill-0, #371A05)"/>
<path d="M65.9475 9.15L67.449 7.4175H68.56L70.0615 9.15H68.824L68.0045 8.171L67.185 9.15H65.9475ZM68.098 16.1075C67.4966 16.1075 66.9686 15.9773 66.514 15.717C66.0593 15.4567 65.7036 15.0955 65.447 14.6335C65.194 14.1715 65.0675 13.6398 65.0675 13.0385C65.0675 12.3895 65.1921 11.8267 65.4415 11.35C65.6908 10.8697 66.0373 10.4975 66.481 10.2335C66.9246 9.9695 67.438 9.8375 68.021 9.8375C68.637 9.8375 69.1595 9.98233 69.5885 10.272C70.0211 10.558 70.342 10.9632 70.551 11.4875C70.76 12.0118 70.8388 12.6297 70.7875 13.341H69.473V12.857C69.4693 12.2117 69.3556 11.7405 69.132 11.4435C68.9083 11.1465 68.5563 10.998 68.076 10.998C67.5333 10.998 67.13 11.1667 66.866 11.504C66.602 11.8377 66.47 12.3272 66.47 12.9725C66.47 13.5738 66.602 14.0395 66.866 14.3695C67.13 14.6995 67.515 14.8645 68.021 14.8645C68.3473 14.8645 68.6278 14.793 68.8625 14.65C69.1008 14.5033 69.2841 14.2925 69.4125 14.0175L70.7215 14.4135C70.4941 14.9488 70.1421 15.365 69.6655 15.662C69.1925 15.959 68.67 16.1075 68.098 16.1075ZM66.052 13.341V12.34H70.1385V13.341H66.052Z" fill="var(--fill-0, #371A05)"/>
<path d="M75.962 15.9425V13.0825C75.962 12.8955 75.9492 12.6883 75.9235 12.461C75.8978 12.2337 75.8373 12.0155 75.742 11.8065C75.6503 11.5938 75.511 11.4197 75.324 11.284C75.1407 11.1483 74.8913 11.0805 74.576 11.0805C74.4073 11.0805 74.2405 11.108 74.0755 11.163C73.9105 11.218 73.7602 11.3133 73.6245 11.449C73.4925 11.581 73.3862 11.7643 73.3055 11.999C73.2248 12.23 73.1845 12.527 73.1845 12.89L72.398 12.5545C72.398 12.0485 72.4952 11.5902 72.6895 11.1795C72.8875 10.7688 73.1772 10.4425 73.5585 10.2005C73.9399 9.95483 74.4092 9.832 74.9665 9.832C75.4065 9.832 75.7695 9.90533 76.0555 10.052C76.3415 10.1987 76.5688 10.3857 76.7375 10.613C76.9062 10.8403 77.0308 11.0823 77.1115 11.339C77.1922 11.5957 77.2435 11.8395 77.2655 12.0705C77.2912 12.2978 77.304 12.483 77.304 12.626V15.9425H75.962ZM71.8425 15.9425V10.0025H73.025V11.845H73.1845V15.9425H71.8425Z" fill="var(--fill-0, #371A05)"/>
<path d="M81.2221 16.1075C80.6097 16.1075 80.0872 15.9718 79.6546 15.7005C79.2219 15.4255 78.8901 15.0515 78.6591 14.5785C78.4317 14.1055 78.3162 13.5702 78.3126 12.9725C78.3162 12.3638 78.4354 11.8248 78.6701 11.3555C78.9084 10.8825 79.2457 10.5122 79.6821 10.2445C80.1184 9.97317 80.6372 9.8375 81.2386 9.8375C81.9132 9.8375 82.4834 10.008 82.9491 10.349C83.4184 10.6863 83.7246 11.1483 83.8676 11.735L82.5476 12.0925C82.4449 11.7735 82.2744 11.526 82.0361 11.35C81.7977 11.1703 81.5264 11.0805 81.2221 11.0805C80.8774 11.0805 80.5932 11.163 80.3696 11.328C80.1459 11.4893 79.9809 11.713 79.8746 11.999C79.7682 12.285 79.7151 12.6095 79.7151 12.9725C79.7151 13.5372 79.8416 13.9937 80.0946 14.342C80.3476 14.6903 80.7234 14.8645 81.2221 14.8645C81.5741 14.8645 81.8509 14.7838 82.0526 14.6225C82.2579 14.4612 82.4119 14.2283 82.5146 13.924L83.8676 14.2265C83.6842 14.8315 83.3634 15.2972 82.9051 15.6235C82.4467 15.9462 81.8857 16.1075 81.2221 16.1075Z" fill="var(--fill-0, #371A05)"/>
<path d="M84.9186 9.1005V7.885H86.2441V9.1005H84.9186ZM84.9186 15.9425V10.0025H86.2441V15.9425H84.9186Z" fill="var(--fill-0, #371A05)"/>
<path d="M89.5526 16.1075C89.1236 16.1075 88.7606 16.0268 88.4636 15.8655C88.1666 15.7005 87.9411 15.4823 87.7871 15.211C87.6368 14.9397 87.5616 14.6408 87.5616 14.3145C87.5616 14.0285 87.6093 13.7718 87.7046 13.5445C87.7999 13.3135 87.9466 13.1155 88.1446 12.9505C88.3426 12.7818 88.5993 12.6443 88.9146 12.538C89.1529 12.461 89.4316 12.3913 89.7506 12.329C90.0733 12.2667 90.4216 12.2098 90.7956 12.1585C91.1733 12.1035 91.5674 12.0448 91.9781 11.9825L91.5051 12.252C91.5088 11.8413 91.4171 11.5388 91.2301 11.3445C91.0431 11.1502 90.7278 11.053 90.2841 11.053C90.0164 11.053 89.7579 11.1153 89.5086 11.24C89.2593 11.3647 89.0851 11.5792 88.9861 11.8835L87.7761 11.504C87.9228 11.0017 88.2014 10.5983 88.6121 10.294C89.0264 9.98967 89.5838 9.8375 90.2841 9.8375C90.8121 9.8375 91.2759 9.92367 91.6756 10.096C92.0789 10.2683 92.3778 10.5507 92.5721 10.943C92.6784 11.152 92.7426 11.3665 92.7646 11.5865C92.7866 11.8028 92.7976 12.0393 92.7976 12.296V15.9425H91.6371V14.6555L91.8296 14.8645C91.5619 15.2935 91.2484 15.6088 90.8891 15.8105C90.5334 16.0085 90.0879 16.1075 89.5526 16.1075ZM89.8166 15.0515C90.1173 15.0515 90.3739 14.9983 90.5866 14.892C90.7993 14.7857 90.9679 14.6555 91.0926 14.5015C91.2209 14.3475 91.3071 14.2027 91.3511 14.067C91.4208 13.8983 91.4593 13.7058 91.4666 13.4895C91.4776 13.2695 91.4831 13.0917 91.4831 12.956L91.8901 13.077C91.4904 13.1393 91.1476 13.1943 90.8616 13.242C90.5756 13.2897 90.3299 13.3355 90.1246 13.3795C89.9193 13.4198 89.7378 13.4657 89.5801 13.517C89.4261 13.572 89.2959 13.6362 89.1896 13.7095C89.0833 13.7828 89.0008 13.8672 88.9421 13.9625C88.8871 14.0578 88.8596 14.1697 88.8596 14.298C88.8596 14.4447 88.8963 14.5748 88.9696 14.6885C89.0429 14.7985 89.1493 14.8865 89.2886 14.9525C89.4316 15.0185 89.6076 15.0515 89.8166 15.0515Z" fill="var(--fill-0, #371A05)"/>
<path d="M96.4316 15.9425V8.0225H99.7041C99.7811 8.0225 99.8801 8.02617 100.001 8.0335C100.122 8.03717 100.234 8.04817 100.337 8.0665C100.795 8.13617 101.173 8.28833 101.47 8.523C101.77 8.75767 101.992 9.05467 102.135 9.414C102.282 9.76967 102.355 10.1657 102.355 10.602C102.355 11.0347 102.282 11.4307 102.135 11.79C101.988 12.1457 101.765 12.4408 101.464 12.6755C101.167 12.9102 100.791 13.0623 100.337 13.132C100.234 13.1467 100.12 13.1577 99.9956 13.165C99.8746 13.1723 99.7775 13.176 99.7041 13.176H97.7571V15.9425H96.4316ZM97.7571 11.9385H99.6491C99.7225 11.9385 99.805 11.9348 99.8966 11.9275C99.9883 11.9202 100.073 11.9055 100.15 11.8835C100.37 11.8285 100.542 11.7313 100.667 11.592C100.795 11.4527 100.885 11.295 100.936 11.119C100.991 10.943 101.019 10.7707 101.019 10.602C101.019 10.4333 100.991 10.261 100.936 10.085C100.885 9.90533 100.795 9.74583 100.667 9.6065C100.542 9.46717 100.37 9.37 100.15 9.315C100.073 9.293 99.9883 9.28017 99.8966 9.2765C99.805 9.26917 99.7225 9.2655 99.6491 9.2655H97.7571V11.9385Z" fill="var(--fill-0, #371A05)"/>
<path d="M103.457 15.9425V10.0025H104.629V11.449L104.486 11.262C104.559 11.064 104.656 10.8843 104.777 10.723C104.902 10.558 105.05 10.4223 105.223 10.316C105.369 10.217 105.531 10.14 105.707 10.085C105.886 10.0263 106.07 9.9915 106.257 9.9805C106.444 9.96583 106.625 9.97317 106.801 10.0025V11.24C106.625 11.1887 106.422 11.1722 106.191 11.1905C105.963 11.2088 105.758 11.273 105.575 11.383C105.391 11.482 105.241 11.6085 105.124 11.7625C105.01 11.9165 104.926 12.0925 104.871 12.2905C104.816 12.4848 104.788 12.6957 104.788 12.923V15.9425H103.457Z" fill="var(--fill-0, #371A05)"/>
<path d="M110.444 16.1075C109.842 16.1075 109.314 15.9773 108.86 15.717C108.405 15.4567 108.049 15.0955 107.793 14.6335C107.54 14.1715 107.413 13.6398 107.413 13.0385C107.413 12.3895 107.538 11.8267 107.787 11.35C108.036 10.8697 108.383 10.4975 108.827 10.2335C109.27 9.9695 109.784 9.8375 110.367 9.8375C110.983 9.8375 111.505 9.98233 111.934 10.272C112.367 10.558 112.688 10.9632 112.897 11.4875C113.106 12.0118 113.184 12.6297 113.133 13.341H111.819V12.857C111.815 12.2117 111.701 11.7405 111.478 11.4435C111.254 11.1465 110.902 10.998 110.422 10.998C109.879 10.998 109.476 11.1667 109.212 11.504C108.948 11.8377 108.816 12.3272 108.816 12.9725C108.816 13.5738 108.948 14.0395 109.212 14.3695C109.476 14.6995 109.861 14.8645 110.367 14.8645C110.693 14.8645 110.974 14.793 111.208 14.65C111.447 14.5033 111.63 14.2925 111.758 14.0175L113.067 14.4135C112.84 14.9488 112.488 15.365 112.011 15.662C111.538 15.959 111.016 16.1075 110.444 16.1075ZM108.398 13.341V12.34H112.484V13.341H108.398Z" fill="var(--fill-0, #371A05)"/>
<path d="M121.333 15.9425V12.3345C121.333 11.9275 121.232 11.6103 121.03 11.383C120.829 11.152 120.555 11.0365 120.211 11.0365C119.998 11.0365 119.807 11.086 119.639 11.185C119.47 11.2803 119.336 11.4233 119.237 11.614C119.138 11.801 119.089 12.0247 119.089 12.285L118.5 11.9385C118.497 11.5278 118.588 11.1667 118.775 10.855C118.966 10.5397 119.223 10.294 119.545 10.118C119.868 9.942 120.227 9.854 120.623 9.854C121.28 9.854 121.782 10.052 122.13 10.448C122.482 10.8403 122.658 11.3573 122.658 11.999V15.9425H121.333ZM114.188 15.9425V10.0025H115.36V11.845H115.525V15.9425H114.188ZM117.769 15.9425V12.351C117.769 11.9367 117.668 11.614 117.466 11.383C117.265 11.152 116.99 11.0365 116.641 11.0365C116.304 11.0365 116.033 11.152 115.827 11.383C115.626 11.614 115.525 11.9147 115.525 12.285L114.931 11.889C114.931 11.504 115.026 11.1575 115.217 10.8495C115.407 10.5415 115.664 10.2995 115.987 10.1235C116.313 9.94383 116.678 9.854 117.081 9.854C117.525 9.854 117.895 9.94933 118.192 10.14C118.493 10.327 118.717 10.5837 118.863 10.91C119.014 11.2327 119.089 11.5975 119.089 12.0045V15.9425H117.769Z" fill="var(--fill-0, #371A05)"/>
<path d="M124.203 9.1005V7.885H125.528V9.1005H124.203ZM124.203 15.9425V10.0025H125.528V15.9425H124.203Z" fill="var(--fill-0, #371A05)"/>
<path d="M129.403 16.113C128.963 16.113 128.6 16.0397 128.314 15.893C128.028 15.7463 127.801 15.5593 127.632 15.332C127.464 15.1047 127.339 14.8627 127.258 14.606C127.178 14.3493 127.124 14.1073 127.099 13.88C127.077 13.649 127.066 13.462 127.066 13.319V10.0025H128.408V12.8625C128.408 13.0458 128.421 13.253 128.446 13.484C128.472 13.7113 128.531 13.9313 128.622 14.144C128.718 14.353 128.857 14.5253 129.04 14.661C129.227 14.7967 129.478 14.8645 129.794 14.8645C129.962 14.8645 130.129 14.837 130.294 14.782C130.459 14.727 130.608 14.6335 130.74 14.5015C130.875 14.3658 130.984 14.1807 131.064 13.946C131.145 13.7113 131.185 13.4143 131.185 13.055L131.972 13.3905C131.972 13.8965 131.873 14.3548 131.675 14.7655C131.48 15.1762 131.193 15.5043 130.811 15.75C130.43 15.992 129.961 16.113 129.403 16.113ZM131.345 15.9425V14.1H131.185V10.0025H132.516V15.9425H131.345Z" fill="var(--fill-0, #371A05)"/>
<path d="M141.195 15.9425V12.3345C141.195 11.9275 141.094 11.6103 140.893 11.383C140.691 11.152 140.418 11.0365 140.073 11.0365C139.86 11.0365 139.67 11.086 139.501 11.185C139.332 11.2803 139.199 11.4233 139.1 11.614C139.001 11.801 138.951 12.0247 138.951 12.285L138.363 11.9385C138.359 11.5278 138.451 11.1667 138.638 10.855C138.828 10.5397 139.085 10.294 139.408 10.118C139.73 9.942 140.09 9.854 140.486 9.854C141.142 9.854 141.644 10.052 141.993 10.448C142.345 10.8403 142.521 11.3573 142.521 11.999V15.9425H141.195ZM134.051 15.9425V10.0025H135.222V11.845H135.387V15.9425H134.051ZM137.631 15.9425V12.351C137.631 11.9367 137.53 11.614 137.329 11.383C137.127 11.152 136.852 11.0365 136.504 11.0365C136.166 11.0365 135.895 11.152 135.69 11.383C135.488 11.614 135.387 11.9147 135.387 12.285L134.793 11.889C134.793 11.504 134.888 11.1575 135.079 10.8495C135.27 10.5415 135.526 10.2995 135.849 10.1235C136.175 9.94383 136.54 9.854 136.944 9.854C137.387 9.854 137.758 9.94933 138.055 10.14C138.355 10.327 138.579 10.5837 138.726 10.91C138.876 11.2327 138.951 11.5975 138.951 12.0045V15.9425H137.631Z" fill="var(--fill-0, #371A05)"/>
</g>
</g>
<defs>
<filter id="filter0_di_0_57" x="0" y="0" width="154.521" height="30" filterUnits="userSpaceOnUse" color-interpolation-filters="sRGB">
<feFlood flood-opacity="0" result="BackgroundImageFix"/>
<feColorMatrix in="SourceAlpha" type="matrix" values="0 0 0 0 0 0 0 0 0 0 0 0 0 0 0 0 0 0 127 0" result="hardAlpha"/>
<feOffset dy="2"/>
<feGaussianBlur stdDeviation="2"/>
<feComposite in2="hardAlpha" operator="out"/>
<feColorMatrix type="matrix" values="0 0 0 0 1 0 0 0 0 0.74902 0 0 0 0 0.176471 0 0 0 0.32 0"/>
<feBlend mode="normal" in2="BackgroundImageFix" result="effect1_dropShadow_0_57"/>
<feBlend mode="normal" in="SourceGraphic" in2="effect1_dropShadow_0_57" result="shape"/>
<feColorMatrix in="SourceAlpha" type="matrix" values="0 0 0 0 0 0 0 0 0 0 0 0 0 0 0 0 0 0 127 0" result="hardAlpha"/>
<feOffset dy="-2"/>
<feGaussianBlur stdDeviation="1"/>
<feComposite in2="hardAlpha" operator="arithmetic" k2="-1" k3="1"/>
<feColorMatrix type="matrix" values="0 0 0 0 1 0 0 0 0 1 0 0 0 0 1 0 0 0 0.4 0"/>
<feBlend mode="normal" in2="shape" result="effect2_innerShadow_0_57"/>
</filter>
<filter id="filter1_d_0_57" x="12" y="7" width="12" height="12.6" filterUnits="userSpaceOnUse" color-interpolation-filters="sRGB">
<feFlood flood-opacity="0" result="BackgroundImageFix"/>
<feColorMatrix in="SourceAlpha" type="matrix" values="0 0 0 0 0 0 0 0 0 0 0 0 0 0 0 0 0 0 127 0" result="hardAlpha"/>
<feOffset dy="0.6"/>
<feComposite in2="hardAlpha" operator="out"/>
<feColorMatrix type="matrix" values="0 0 0 0 1 0 0 0 0 1 0 0 0 0 1 0 0 0 0.64 0"/>
<feBlend mode="normal" in2="BackgroundImageFix" result="effect1_dropShadow_0_57"/>
<feBlend mode="normal" in="SourceGraphic" in2="effect1_dropShadow_0_57" result="shape"/>
</filter>
<filter id="filter2_d_0_57" x="32" y="7.4175" width="110.521" height="11.845" filterUnits="userSpaceOnUse" color-interpolation-filters="sRGB">
<feFlood flood-opacity="0" result="BackgroundImageFix"/>
<feColorMatrix in="SourceAlpha" type="matrix" values="0 0 0 0 0 0 0 0 0 0 0 0 0 0 0 0 0 0 127 0" result="hardAlpha"/>
<feOffset dy="0.68"/>
<feComposite in2="hardAlpha" operator="out"/>
<feColorMatrix type="matrix" values="0 0 0 0 1 0 0 0 0 1 0 0 0 0 1 0 0 0 0.24 0"/>
<feBlend mode="normal" in2="BackgroundImageFix" result="effect1_dropShadow_0_57"/>
<feBlend mode="normal" in="SourceGraphic" in2="effect1_dropShadow_0_57" result="shape"/>
</filter>
<linearGradient id="paint0_linear_0_57" x1="4" y1="13" x2="143.96" y2="49.2974" gradientUnits="userSpaceOnUse">
<stop stop-color="#FFC400"/>
<stop offset="1" stop-color="#F6D873"/>
</linearGradient>
</defs>
</svg>
