<svg width="155" height="30" viewBox="0 0 155 30" fill="none" xmlns="http://www.w3.org/2000/svg">
<g filter="url(#filter0_di_17637_48900)">
<path d="M4 13C4 6.92487 8.92487 2 15 2H139.521C145.596 2 150.521 6.92487 150.521 13C150.521 19.0751 145.596 24 139.521 24H15C8.92487 24 4 19.0751 4 13Z" fill="url(#paint0_linear_17637_48900)" shape-rendering="crispEdges"/>
<g filter="url(#filter1_d_17637_48900)">
<path d="M17.6875 19C17.5729 18.3229 17.2708 17.5937 16.7812 16.8125C16.2917 16.0208 15.5937 15.2865 14.6875 14.6094C13.7917 13.9323 12.8958 13.5 12 13.3125V12.6562C12.8854 12.4479 13.7344 12.0625 14.5469 11.5C15.3698 10.9271 16.0573 10.2396 16.6094 9.4375C17.1719 8.61458 17.5312 7.80208 17.6875 7H18.3437C18.4375 7.52083 18.625 8.05729 18.9062 8.60937C19.1875 9.15104 19.5469 9.67187 19.9844 10.1719C20.4323 10.6615 20.9323 11.1042 21.4844 11.5C22.3073 12.0833 23.1458 12.4687 24 12.6562V13.3125C23.4271 13.4271 22.8333 13.6615 22.2188 14.0156C21.6146 14.3698 21.0521 14.7917 20.5312 15.2812C20.0104 15.7604 19.5833 16.2656 19.25 16.7969C18.7604 17.5781 18.4583 18.3125 18.3437 19H17.6875Z" fill="black"/>
</g>
<g filter="url(#filter2_d_17637_48900)">
<path d="M32 15.9391V8.01906H37.115V9.26206H33.3255V11.2146H36.455V12.4576H33.3255V14.6961H37.115V15.9391H32Z" fill="#371A05"/>
<path d="M37.7746 15.9391L39.9471 12.9361L37.8186 9.99906H39.3806L40.7171 11.8966L42.0316 9.99906H43.5936L41.4651 12.9361L43.6486 15.9391H42.0866L40.7171 13.9756L39.3366 15.9391H37.7746Z" fill="#371A05"/>
<path d="M47.3799 16.1041C46.8006 16.1041 46.3147 15.9666 45.9224 15.6916C45.5301 15.4166 45.2349 15.0426 45.0369 14.5696C44.8389 14.0929 44.7399 13.5594 44.7399 12.9691C44.7399 12.3714 44.8389 11.8361 45.0369 11.3631C45.2349 10.8901 45.5246 10.5179 45.9059 10.2466C46.2909 9.97156 46.7657 9.83406 47.3304 9.83406C47.8914 9.83406 48.3772 9.97156 48.7879 10.2466C49.2022 10.5179 49.5231 10.8901 49.7504 11.3631C49.9777 11.8324 50.0914 12.3677 50.0914 12.9691C50.0914 13.5631 49.9796 14.0966 49.7559 14.5696C49.5322 15.0426 49.2169 15.4166 48.8099 15.6916C48.4029 15.9666 47.9262 16.1041 47.3799 16.1041ZM44.5144 18.5791V9.99906H45.6859V14.1681H45.8509V18.5791H44.5144ZM47.1764 14.9161C47.5211 14.9161 47.8052 14.8299 48.0289 14.6576C48.2526 14.4852 48.4176 14.2524 48.5239 13.9591C48.6339 13.6621 48.6889 13.3321 48.6889 12.9691C48.6889 12.6097 48.6339 12.2834 48.5239 11.9901C48.4139 11.6931 48.2434 11.4584 48.0124 11.2861C47.7814 11.1101 47.4881 11.0221 47.1324 11.0221C46.7951 11.0221 46.5201 11.1046 46.3074 11.2696C46.0947 11.4309 45.9371 11.6582 45.8344 11.9516C45.7354 12.2412 45.6859 12.5804 45.6859 12.9691C45.6859 13.3541 45.7354 13.6932 45.8344 13.9866C45.9371 14.2799 46.0966 14.5091 46.3129 14.6741C46.5329 14.8354 46.8207 14.9161 47.1764 14.9161Z" fill="#371A05"/>
<path d="M54.0042 16.1041C53.4029 16.1041 52.8749 15.9739 52.4202 15.7136C51.9655 15.4532 51.6099 15.0921 51.3532 14.6301C51.1002 14.1681 50.9737 13.6364 50.9737 13.0351C50.9737 12.3861 51.0984 11.8232 51.3477 11.3466C51.597 10.8662 51.9435 10.4941 52.3872 10.2301C52.8309 9.96606 53.3442 9.83406 53.9272 9.83406C54.5432 9.83406 55.0657 9.9789 55.4947 10.2686C55.9274 10.5546 56.2482 10.9597 56.4572 11.4841C56.6662 12.0084 56.745 12.6262 56.6937 13.3376H55.3792V12.8536C55.3755 12.2082 55.2619 11.7371 55.0382 11.4401C54.8145 11.1431 54.4625 10.9946 53.9822 10.9946C53.4395 10.9946 53.0362 11.1632 52.7722 11.5006C52.5082 11.8342 52.3762 12.3237 52.3762 12.9691C52.3762 13.5704 52.5082 14.0361 52.7722 14.3661C53.0362 14.6961 53.4212 14.8611 53.9272 14.8611C54.2535 14.8611 54.534 14.7896 54.7687 14.6466C55.007 14.4999 55.1904 14.2891 55.3187 14.0141L56.6277 14.4101C56.4004 14.9454 56.0484 15.3616 55.5717 15.6586C55.0987 15.9556 54.5762 16.1041 54.0042 16.1041ZM51.9582 13.3376V12.3366H56.0447V13.3376H51.9582Z" fill="#371A05"/>
<path d="M57.9209 15.9391V9.99906H59.0924V11.4456L58.9494 11.2586C59.0227 11.0606 59.1199 10.8809 59.2409 10.7196C59.3656 10.5546 59.5141 10.4189 59.6864 10.3126C59.8331 10.2136 59.9944 10.1366 60.1704 10.0816C60.3501 10.0229 60.5334 9.98806 60.7204 9.97706C60.9074 9.9624 61.0889 9.96973 61.2649 9.99906V11.2366C61.0889 11.1852 60.8854 11.1687 60.6544 11.1871C60.4271 11.2054 60.2217 11.2696 60.0384 11.3796C59.8551 11.4786 59.7047 11.6051 59.5874 11.7591C59.4737 11.9131 59.3894 12.0891 59.3344 12.2871C59.2794 12.4814 59.2519 12.6922 59.2519 12.9196V15.9391H57.9209Z" fill="#371A05"/>
<path d="M62.4245 9.09706V7.88156H63.75V9.09706H62.4245ZM62.4245 15.9391V9.99906H63.75V15.9391H62.4245Z" fill="#371A05"/>
<path d="M65.9475 9.14656L67.449 7.41406H68.56L70.0615 9.14656H68.824L68.0045 8.16756L67.185 9.14656H65.9475ZM68.098 16.1041C67.4966 16.1041 66.9686 15.9739 66.514 15.7136C66.0593 15.4532 65.7036 15.0921 65.447 14.6301C65.194 14.1681 65.0675 13.6364 65.0675 13.0351C65.0675 12.3861 65.1921 11.8232 65.4415 11.3466C65.6908 10.8662 66.0373 10.4941 66.481 10.2301C66.9246 9.96606 67.438 9.83406 68.021 9.83406C68.637 9.83406 69.1595 9.9789 69.5885 10.2686C70.0211 10.5546 70.342 10.9597 70.551 11.4841C70.76 12.0084 70.8388 12.6262 70.7875 13.3376H69.473V12.8536C69.4693 12.2082 69.3556 11.7371 69.132 11.4401C68.9083 11.1431 68.5563 10.9946 68.076 10.9946C67.5333 10.9946 67.13 11.1632 66.866 11.5006C66.602 11.8342 66.47 12.3237 66.47 12.9691C66.47 13.5704 66.602 14.0361 66.866 14.3661C67.13 14.6961 67.515 14.8611 68.021 14.8611C68.3473 14.8611 68.6278 14.7896 68.8625 14.6466C69.1008 14.4999 69.2841 14.2891 69.4125 14.0141L70.7215 14.4101C70.4941 14.9454 70.1421 15.3616 69.6655 15.6586C69.1925 15.9556 68.67 16.1041 68.098 16.1041ZM66.052 13.3376V12.3366H70.1385V13.3376H66.052Z" fill="#371A05"/>
<path d="M75.962 15.9391V13.0791C75.962 12.8921 75.9492 12.6849 75.9235 12.4576C75.8979 12.2302 75.8373 12.0121 75.742 11.8031C75.6503 11.5904 75.511 11.4162 75.324 11.2806C75.1407 11.1449 74.8913 11.0771 74.576 11.0771C74.4073 11.0771 74.2405 11.1046 74.0755 11.1596C73.9105 11.2146 73.7602 11.3099 73.6245 11.4456C73.4925 11.5776 73.3862 11.7609 73.3055 11.9956C73.2248 12.2266 73.1845 12.5236 73.1845 12.8866L72.398 12.5511C72.398 12.0451 72.4952 11.5867 72.6895 11.1761C72.8875 10.7654 73.1772 10.4391 73.5585 10.1971C73.9398 9.9514 74.4092 9.82856 74.9665 9.82856C75.4065 9.82856 75.7695 9.9019 76.0555 10.0486C76.3415 10.1952 76.5688 10.3822 76.7375 10.6096C76.9062 10.8369 77.0308 11.0789 77.1115 11.3356C77.1922 11.5922 77.2435 11.8361 77.2655 12.0671C77.2912 12.2944 77.304 12.4796 77.304 12.6226V15.9391H75.962ZM71.8425 15.9391V9.99906H73.025V11.8416H73.1845V15.9391H71.8425Z" fill="#371A05"/>
<path d="M81.2221 16.1041C80.6097 16.1041 80.0872 15.9684 79.6546 15.6971C79.2219 15.4221 78.8901 15.0481 78.6591 14.5751C78.4317 14.1021 78.3162 13.5667 78.3126 12.9691C78.3162 12.3604 78.4354 11.8214 78.6701 11.3521C78.9084 10.8791 79.2457 10.5087 79.6821 10.2411C80.1184 9.96973 80.6372 9.83406 81.2386 9.83406C81.9132 9.83406 82.4834 10.0046 82.9491 10.3456C83.4184 10.6829 83.7246 11.1449 83.8676 11.7316L82.5476 12.0891C82.4449 11.7701 82.2744 11.5226 82.0361 11.3466C81.7977 11.1669 81.5264 11.0771 81.2221 11.0771C80.8774 11.0771 80.5932 11.1596 80.3696 11.3246C80.1459 11.4859 79.9809 11.7096 79.8746 11.9956C79.7682 12.2816 79.7151 12.6061 79.7151 12.9691C79.7151 13.5337 79.8416 13.9902 80.0946 14.3386C80.3476 14.6869 80.7234 14.8611 81.2221 14.8611C81.5741 14.8611 81.8509 14.7804 82.0526 14.6191C82.2579 14.4577 82.4119 14.2249 82.5146 13.9206L83.8676 14.2231C83.6842 14.8281 83.3634 15.2937 82.9051 15.6201C82.4467 15.9427 81.8857 16.1041 81.2221 16.1041Z" fill="#371A05"/>
<path d="M84.9186 9.09706V7.88156H86.2441V9.09706H84.9186ZM84.9186 15.9391V9.99906H86.2441V15.9391H84.9186Z" fill="#371A05"/>
<path d="M89.5526 16.1041C89.1236 16.1041 88.7606 16.0234 88.4636 15.8621C88.1666 15.6971 87.9411 15.4789 87.7871 15.2076C87.6368 14.9362 87.5616 14.6374 87.5616 14.3111C87.5616 14.0251 87.6093 13.7684 87.7046 13.5411C87.7999 13.3101 87.9466 13.1121 88.1446 12.9471C88.3426 12.7784 88.5993 12.6409 88.9146 12.5346C89.1529 12.4576 89.4316 12.3879 89.7506 12.3256C90.0733 12.2632 90.4216 12.2064 90.7956 12.1551C91.1733 12.1001 91.5674 12.0414 91.9781 11.9791L91.5051 12.2486C91.5088 11.8379 91.4171 11.5354 91.2301 11.3411C91.0431 11.1467 90.7278 11.0496 90.2841 11.0496C90.0164 11.0496 89.7579 11.1119 89.5086 11.2366C89.2593 11.3612 89.0851 11.5757 88.9861 11.8801L87.7761 11.5006C87.9228 10.9982 88.2014 10.5949 88.6121 10.2906C89.0264 9.98623 89.5838 9.83406 90.2841 9.83406C90.8121 9.83406 91.2759 9.92023 91.6756 10.0926C92.0789 10.2649 92.3778 10.5472 92.5721 10.9396C92.6784 11.1486 92.7426 11.3631 92.7646 11.5831C92.7866 11.7994 92.7976 12.0359 92.7976 12.2926V15.9391H91.6371V14.6521L91.8296 14.8611C91.5619 15.2901 91.2484 15.6054 90.8891 15.8071C90.5334 16.0051 90.0879 16.1041 89.5526 16.1041ZM89.8166 15.0481C90.1173 15.0481 90.3739 14.9949 90.5866 14.8886C90.7993 14.7822 90.9679 14.6521 91.0926 14.4981C91.2209 14.3441 91.3071 14.1992 91.3511 14.0636C91.4208 13.8949 91.4593 13.7024 91.4666 13.4861C91.4776 13.2661 91.4831 13.0882 91.4831 12.9526L91.8901 13.0736C91.4904 13.1359 91.1476 13.1909 90.8616 13.2386C90.5756 13.2862 90.3299 13.3321 90.1246 13.3761C89.9193 13.4164 89.7378 13.4622 89.5801 13.5136C89.4261 13.5686 89.2959 13.6327 89.1896 13.7061C89.0833 13.7794 89.0008 13.8637 88.9421 13.9591C88.8871 14.0544 88.8596 14.1662 88.8596 14.2946C88.8596 14.4412 88.8963 14.5714 88.9696 14.6851C89.0429 14.7951 89.1493 14.8831 89.2886 14.9491C89.4316 15.0151 89.6076 15.0481 89.8166 15.0481Z" fill="#371A05"/>
<path d="M96.4316 15.9391V8.01906H99.7041C99.7811 8.01906 99.8801 8.02273 100.001 8.03006C100.122 8.03373 100.234 8.04473 100.337 8.06306C100.795 8.13273 101.173 8.2849 101.47 8.51956C101.77 8.75423 101.992 9.05123 102.135 9.41056C102.282 9.76623 102.355 10.1622 102.355 10.5986C102.355 11.0312 102.282 11.4272 102.135 11.7866C101.988 12.1422 101.765 12.4374 101.464 12.6721C101.167 12.9067 100.791 13.0589 100.337 13.1286C100.234 13.1432 100.12 13.1542 99.9956 13.1616C99.8746 13.1689 99.7775 13.1726 99.7041 13.1726H97.7571V15.9391H96.4316ZM97.7571 11.9351H99.6491C99.7225 11.9351 99.805 11.9314 99.8966 11.9241C99.9883 11.9167 100.073 11.9021 100.15 11.8801C100.37 11.8251 100.542 11.7279 100.667 11.5886C100.795 11.4492 100.885 11.2916 100.936 11.1156C100.991 10.9396 101.019 10.7672 101.019 10.5986C101.019 10.4299 100.991 10.2576 100.936 10.0816C100.885 9.9019 100.795 9.7424 100.667 9.60306C100.542 9.46373 100.37 9.36656 100.15 9.31156C100.073 9.28956 99.9883 9.27673 99.8966 9.27306C99.805 9.26573 99.7225 9.26206 99.6491 9.26206H97.7571V11.9351Z" fill="#371A05"/>
<path d="M103.457 15.9391V9.99906H104.629V11.4456L104.486 11.2586C104.559 11.0606 104.656 10.8809 104.777 10.7196C104.902 10.5546 105.05 10.4189 105.223 10.3126C105.369 10.2136 105.531 10.1366 105.707 10.0816C105.886 10.0229 106.07 9.98806 106.257 9.97706C106.444 9.9624 106.625 9.96973 106.801 9.99906V11.2366C106.625 11.1852 106.422 11.1687 106.191 11.1871C105.963 11.2054 105.758 11.2696 105.575 11.3796C105.391 11.4786 105.241 11.6051 105.124 11.7591C105.01 11.9131 104.926 12.0891 104.871 12.2871C104.816 12.4814 104.788 12.6922 104.788 12.9196V15.9391H103.457Z" fill="#371A05"/>
<path d="M110.444 16.1041C109.842 16.1041 109.314 15.9739 108.86 15.7136C108.405 15.4532 108.049 15.0921 107.793 14.6301C107.54 14.1681 107.413 13.6364 107.413 13.0351C107.413 12.3861 107.538 11.8232 107.787 11.3466C108.036 10.8662 108.383 10.4941 108.827 10.2301C109.27 9.96606 109.784 9.83406 110.367 9.83406C110.983 9.83406 111.505 9.9789 111.934 10.2686C112.367 10.5546 112.688 10.9597 112.897 11.4841C113.106 12.0084 113.184 12.6262 113.133 13.3376H111.819V12.8536C111.815 12.2082 111.701 11.7371 111.478 11.4401C111.254 11.1431 110.902 10.9946 110.422 10.9946C109.879 10.9946 109.476 11.1632 109.212 11.5006C108.948 11.8342 108.816 12.3237 108.816 12.9691C108.816 13.5704 108.948 14.0361 109.212 14.3661C109.476 14.6961 109.861 14.8611 110.367 14.8611C110.693 14.8611 110.974 14.7896 111.208 14.6466C111.447 14.4999 111.63 14.2891 111.758 14.0141L113.067 14.4101C112.84 14.9454 112.488 15.3616 112.011 15.6586C111.538 15.9556 111.016 16.1041 110.444 16.1041ZM108.398 13.3376V12.3366H112.484V13.3376H108.398Z" fill="#371A05"/>
<path d="M121.333 15.9391V12.3311C121.333 11.9241 121.232 11.6069 121.03 11.3796C120.829 11.1486 120.555 11.0331 120.211 11.0331C119.998 11.0331 119.807 11.0826 119.639 11.1816C119.47 11.2769 119.336 11.4199 119.237 11.6106C119.138 11.7976 119.089 12.0212 119.089 12.2816L118.5 11.9351C118.497 11.5244 118.588 11.1632 118.775 10.8516C118.966 10.5362 119.223 10.2906 119.545 10.1146C119.868 9.93856 120.227 9.85056 120.623 9.85056C121.28 9.85056 121.782 10.0486 122.13 10.4446C122.482 10.8369 122.658 11.3539 122.658 11.9956V15.9391H121.333ZM114.188 15.9391V9.99906H115.36V11.8416H115.525V15.9391H114.188ZM117.769 15.9391V12.3476C117.769 11.9332 117.668 11.6106 117.466 11.3796C117.265 11.1486 116.99 11.0331 116.641 11.0331C116.304 11.0331 116.033 11.1486 115.827 11.3796C115.626 11.6106 115.525 11.9112 115.525 12.2816L114.931 11.8856C114.931 11.5006 115.026 11.1541 115.217 10.8461C115.407 10.5381 115.664 10.2961 115.987 10.1201C116.313 9.9404 116.678 9.85056 117.081 9.85056C117.525 9.85056 117.895 9.9459 118.192 10.1366C118.493 10.3236 118.717 10.5802 118.863 10.9066C119.014 11.2292 119.089 11.5941 119.089 12.0011V15.9391H117.769Z" fill="#371A05"/>
<path d="M124.203 9.09706V7.88156H125.528V9.09706H124.203ZM124.203 15.9391V9.99906H125.528V15.9391H124.203Z" fill="#371A05"/>
<path d="M129.403 16.1096C128.963 16.1096 128.6 16.0362 128.314 15.8896C128.028 15.7429 127.801 15.5559 127.632 15.3286C127.464 15.1012 127.339 14.8592 127.258 14.6026C127.178 14.3459 127.124 14.1039 127.099 13.8766C127.077 13.6456 127.066 13.4586 127.066 13.3156V9.99906H128.408V12.8591C128.408 13.0424 128.421 13.2496 128.446 13.4806C128.472 13.7079 128.531 13.9279 128.622 14.1406C128.718 14.3496 128.857 14.5219 129.04 14.6576C129.227 14.7932 129.478 14.8611 129.794 14.8611C129.962 14.8611 130.129 14.8336 130.294 14.7786C130.459 14.7236 130.608 14.6301 130.74 14.4981C130.875 14.3624 130.984 14.1772 131.064 13.9426C131.145 13.7079 131.185 13.4109 131.185 13.0516L131.972 13.3871C131.972 13.8931 131.873 14.3514 131.675 14.7621C131.48 15.1727 131.193 15.5009 130.811 15.7466C130.43 15.9886 129.961 16.1096 129.403 16.1096ZM131.345 15.9391V14.0966H131.185V9.99906H132.516V15.9391H131.345Z" fill="#371A05"/>
<path d="M141.195 15.9391V12.3311C141.195 11.9241 141.094 11.6069 140.893 11.3796C140.691 11.1486 140.418 11.0331 140.073 11.0331C139.86 11.0331 139.67 11.0826 139.501 11.1816C139.332 11.2769 139.199 11.4199 139.1 11.6106C139.001 11.7976 138.951 12.0212 138.951 12.2816L138.363 11.9351C138.359 11.5244 138.451 11.1632 138.638 10.8516C138.828 10.5362 139.085 10.2906 139.408 10.1146C139.73 9.93856 140.09 9.85056 140.486 9.85056C141.142 9.85056 141.644 10.0486 141.993 10.4446C142.345 10.8369 142.521 11.3539 142.521 11.9956V15.9391H141.195ZM134.051 15.9391V9.99906H135.222V11.8416H135.387V15.9391H134.051ZM137.631 15.9391V12.3476C137.631 11.9332 137.53 11.6106 137.329 11.3796C137.127 11.1486 136.852 11.0331 136.504 11.0331C136.166 11.0331 135.895 11.1486 135.69 11.3796C135.488 11.6106 135.387 11.9112 135.387 12.2816L134.793 11.8856C134.793 11.5006 134.888 11.1541 135.079 10.8461C135.27 10.5381 135.526 10.2961 135.849 10.1201C136.175 9.9404 136.54 9.85056 136.944 9.85056C137.387 9.85056 137.758 9.9459 138.055 10.1366C138.355 10.3236 138.579 10.5802 138.726 10.9066C138.876 11.2292 138.951 11.5941 138.951 12.0011V15.9391H137.631Z" fill="#371A05"/>
</g>
</g>
<defs>
<filter id="filter0_di_17637_48900" x="0" y="0" width="154.521" height="30" filterUnits="userSpaceOnUse" color-interpolation-filters="sRGB">
<feFlood flood-opacity="0" result="BackgroundImageFix"/>
<feColorMatrix in="SourceAlpha" type="matrix" values="0 0 0 0 0 0 0 0 0 0 0 0 0 0 0 0 0 0 127 0" result="hardAlpha"/>
<feOffset dy="2"/>
<feGaussianBlur stdDeviation="2"/>
<feComposite in2="hardAlpha" operator="out"/>
<feColorMatrix type="matrix" values="0 0 0 0 1 0 0 0 0 0.74902 0 0 0 0 0.176471 0 0 0 0.32 0"/>
<feBlend mode="normal" in2="BackgroundImageFix" result="effect1_dropShadow_17637_48900"/>
<feBlend mode="normal" in="SourceGraphic" in2="effect1_dropShadow_17637_48900" result="shape"/>
<feColorMatrix in="SourceAlpha" type="matrix" values="0 0 0 0 0 0 0 0 0 0 0 0 0 0 0 0 0 0 127 0" result="hardAlpha"/>
<feOffset dy="-2"/>
<feGaussianBlur stdDeviation="1"/>
<feComposite in2="hardAlpha" operator="arithmetic" k2="-1" k3="1"/>
<feColorMatrix type="matrix" values="0 0 0 0 1 0 0 0 0 1 0 0 0 0 1 0 0 0 0.4 0"/>
<feBlend mode="normal" in2="shape" result="effect2_innerShadow_17637_48900"/>
</filter>
<filter id="filter1_d_17637_48900" x="12" y="7" width="12" height="12.6" filterUnits="userSpaceOnUse" color-interpolation-filters="sRGB">
<feFlood flood-opacity="0" result="BackgroundImageFix"/>
<feColorMatrix in="SourceAlpha" type="matrix" values="0 0 0 0 0 0 0 0 0 0 0 0 0 0 0 0 0 0 127 0" result="hardAlpha"/>
<feOffset dy="0.6"/>
<feComposite in2="hardAlpha" operator="out"/>
<feColorMatrix type="matrix" values="0 0 0 0 1 0 0 0 0 1 0 0 0 0 1 0 0 0 0.64 0"/>
<feBlend mode="normal" in2="BackgroundImageFix" result="effect1_dropShadow_17637_48900"/>
<feBlend mode="normal" in="SourceGraphic" in2="effect1_dropShadow_17637_48900" result="shape"/>
</filter>
<filter id="filter2_d_17637_48900" x="32" y="7.41406" width="110.521" height="11.8441" filterUnits="userSpaceOnUse" color-interpolation-filters="sRGB">
<feFlood flood-opacity="0" result="BackgroundImageFix"/>
<feColorMatrix in="SourceAlpha" type="matrix" values="0 0 0 0 0 0 0 0 0 0 0 0 0 0 0 0 0 0 127 0" result="hardAlpha"/>
<feOffset dy="0.68"/>
<feComposite in2="hardAlpha" operator="out"/>
<feColorMatrix type="matrix" values="0 0 0 0 1 0 0 0 0 1 0 0 0 0 1 0 0 0 0.24 0"/>
<feBlend mode="normal" in2="BackgroundImageFix" result="effect1_dropShadow_17637_48900"/>
<feBlend mode="normal" in="SourceGraphic" in2="effect1_dropShadow_17637_48900" result="shape"/>
</filter>
<linearGradient id="paint0_linear_17637_48900" x1="4" y1="13" x2="143.96" y2="49.2974" gradientUnits="userSpaceOnUse">
<stop stop-color="#FFC400"/>
<stop offset="1" stop-color="#F6D873"/>
</linearGradient>
</defs>
</svg>
